<svg xmlns="http://www.w3.org/2000/svg" width="14" height="16" viewBox="0 0 14 16">
  <g id="需求" transform="translate(0 -0.857)">
    <path id="形状" d="M12.6,16H1.4A1.369,1.369,0,0,1,0,14.667V1.334A1.369,1.369,0,0,1,1.4,0H12.6A1.369,1.369,0,0,1,14,1.334V14.667A1.369,1.369,0,0,1,12.6,16ZM4.732,8.16a.667.667,0,1,0,0,1.333H9.268a.684.684,0,0,0,.7-.666.7.7,0,0,0-.7-.667ZM3.262,5.026a.684.684,0,0,0-.7.667.7.7,0,0,0,.7.667h7.476a.668.668,0,1,0,0-1.334Z" transform="translate(0 0.857)" fill="#fff"/>
  </g>
</svg>
