<svg xmlns="http://www.w3.org/2000/svg" viewBox="0 0 126 126">
  <defs>
    <style>
      .cls-1 {
        fill: #ffffff;
      }
    </style>
  </defs>
  <title>知识图谱</title>
  <g id="图层_2" data-name="图层 2">
    <g id="Networking">
      <path class="cls-1"
        d="M52.89,69.49A24,24,0,0,0,40.26,38.24a22.42,22.42,0,0,0-4.56-1.41A23.5,23.5,0,0,0,9.44,51,24,24,0,0,0,22.07,82.29a23.12,23.12,0,0,0,12.79,1.56A23.6,23.6,0,0,0,52.89,69.49Z" />
      <path class="cls-1"
        d="M20.09,87.08a28.16,28.16,0,0,1-5.69-3.23L2,113.81a6.6,6.6,0,0,0,3.47,8.6A6.45,6.45,0,0,0,14,118.88L26.36,88.93A28,28,0,0,1,20.09,87.08Z" />
      <path class="cls-1"
        d="M31.75,89.32l-2.82,6.82h5.94c-.61-2.21-1.15-4.51-1.64-6.9C32.74,89.28,32.24,89.31,31.75,89.32Z" />
      <path class="cls-1" d="M60.47,124V101.33H41.93C46.53,113.94,53.26,122.37,60.47,124Z" />
      <path class="cls-1" d="M65.59,101.33V124c7.37-1.63,14-10.2,18.51-22.69Z" />
      <path class="cls-1"
        d="M57.62,71.49A28.57,28.57,0,0,1,38.3,88.41q.84,4,1.92,7.73H60.47V65.6H59.36A29.55,29.55,0,0,1,57.62,71.49Z" />
      <path class="cls-1"
        d="M39.51,32.44c.92.29,1.84.63,2.73,1A29.12,29.12,0,0,1,59.84,60.4h.63V29.87H40.22C40,30.71,39.74,31.57,39.51,32.44Z" />
      <path class="cls-1" d="M65.59,2V24.67H84.1C79.58,12.19,73,3.62,65.59,2Z" />
      <path class="cls-1" d="M85.79,29.87H65.59V60.4H90.24A118.13,118.13,0,0,0,85.79,29.87Z" />
      <path class="cls-1" d="M41.91,24.67H60.47V2C53.28,3.6,46.53,11.93,41.91,24.67Z" />
      <path class="cls-1" d="M95.36,60.4H126a64.07,64.07,0,0,0-9.06-30.53H91.22A124.82,124.82,0,0,1,95.36,60.4Z" />
      <path class="cls-1"
        d="M36.44,101.33H26.79l-4.36,10.54A62.47,62.47,0,0,0,52.4,126C45.89,121.51,40.33,112.94,36.44,101.33Z" />
      <path class="cls-1" d="M73.59,126a62.87,62.87,0,0,0,39.88-24.67H89.63C85.77,112.76,80.18,121.47,73.59,126Z" />
      <path class="cls-1"
        d="M6.11,90.47l4.22-10.22A29.36,29.36,0,0,1,4.72,49,28.62,28.62,0,0,1,31.18,31.18a28.12,28.12,0,0,1,3.3.21c.13-.52.27-1,.4-1.52H9.12a64.77,64.77,0,0,0-3,60.6Z" />
      <path class="cls-1" d="M90.24,65.6H65.59V96.14h20.2A118.27,118.27,0,0,0,90.24,65.6Z" />
      <path class="cls-1" d="M91.22,96.14h25.72A64.14,64.14,0,0,0,126,65.6H95.36A125,125,0,0,1,91.22,96.14Z" />
      <path class="cls-1" d="M52.5,0A62.85,62.85,0,0,0,12.6,24.67H36.47C40.41,13,46,4.47,52.5,0Z" />
      <path class="cls-1" d="M89.63,24.67h23.84A62.87,62.87,0,0,0,73.59,0C80.18,4.54,85.77,13.24,89.63,24.67Z" />
    </g>
  </g>
</svg>