<svg xmlns="http://www.w3.org/2000/svg" viewBox="0 0 126 94.82">
  <defs>
    <style>
      .cls-1 {
        fill: #ffffff;
      }
    </style>
  </defs>
  <title>仿真推演</title>
  <g id="图层_2" data-name="图层 2">
    <g id="Science_and_Technology" data-name="Science and Technology">
      <path class="cls-1" d="M0,77.61v7.46a9.76,9.76,0,0,0,9.75,9.75h106.5A9.76,9.76,0,0,0,126,85.07V77.61Z" />
      <path class="cls-1" d="M119.51,0H6.49V72.49h113Zm-8.14,64.35H14.63V8.14h96.74Z" />
      <path class="cls-1"
        d="M51.43,36.76A7.56,7.56,0,0,0,54,36.32l8.88,8.19a7.61,7.61,0,1,0,11.77-2.87l2.91-9.48a.86.86,0,0,0,0-.23A7.61,7.61,0,1,0,67.4,22.38a3,3,0,0,0-.41,0l-9.72,1.84a7.61,7.61,0,1,0-5.84,12.5ZM59,29.14l8.39-1.59a7.63,7.63,0,0,0,4.74,4.61L69.77,40a7.57,7.57,0,0,0-3.42.83L58,33.05A7.58,7.58,0,0,0,59,29.15Z" />
    </g>
  </g>
</svg>