<svg xmlns="http://www.w3.org/2000/svg" viewBox="0 0 126 126">
  <defs>
    <style>
      .cls-1 {
        fill: #ffffff;
      }
    </style>
  </defs>
  <title>应用场景</title>
  <g id="图层_2" data-name="图层 2">
    <g id="Real_Estate" data-name="Real Estate">
      <path class="cls-1" d="M.11,122.74A2.53,2.53,0,0,0,.48,125a2.46,2.46,0,0,0,2,1h58V99.5H7.31Z" />
      <path class="cls-1"
        d="M63,78.68a2.45,2.45,0,0,0,2-1.05C66,76.19,90.22,42,90.22,27.55a27.22,27.22,0,1,0-54.44,0C35.78,42,60,76.19,61,77.63A2.48,2.48,0,0,0,63,78.68ZM46,27.55A17,17,0,1,1,63,44.74,17.11,17.11,0,0,1,46,27.55Z" />
      <path class="cls-1"
        d="M71.76,76.67h39.85L107.1,62.12a2.48,2.48,0,0,0-2.37-1.76H82.13C78.3,66.89,74.43,72.76,71.76,76.67Z" />
      <path class="cls-1"
        d="M43.87,60.36H21.27a2.48,2.48,0,0,0-2.37,1.76L14.39,76.67H54.24C51.57,72.76,47.7,66.89,43.87,60.36Z" />
      <path class="cls-1"
        d="M125.89,122.74l-7.2-23.24H88.11v8a2.49,2.49,0,1,1-5,0V91.14a2.49,2.49,0,1,1,5,0v3.34h29l-4-12.79H68.05a7.35,7.35,0,0,1-10.1,0H12.83l-4,12.79H63A2.49,2.49,0,0,1,65.48,97v29h58a2.46,2.46,0,0,0,2-1A2.53,2.53,0,0,0,125.89,122.74Z" />
    </g>
  </g>
</svg>