<svg xmlns="http://www.w3.org/2000/svg" viewBox="0 0 126 126">
  <defs>
    <style>
      .cls-1 {
        fill: #ffffff;
      }
    </style>
  </defs>
  <title>数据中台</title>
  <g id="图层_2" data-name="图层 2">
    <g id="Networking">
      <polygon class="cls-1" points="11.74 39 27.9 39 27.9 12.3 32.58 12.3 19.82 0 7.06 12.3 11.74 12.3 11.74 39" />
      <polygon class="cls-1"
        points="63.96 46.73 59.28 46.73 59.28 20.02 43.12 20.02 43.12 46.73 38.44 46.73 51.2 59.02 63.96 46.73" />
      <rect class="cls-1" x="33.21" y="32.07" width="4.6" height="9.54" />
      <polygon class="cls-1" points="28.23 44.12 6.42 44.12 6.42 32.07 0 32.07 0 56.68 41.26 56.68 28.23 44.12" />
      <path class="cls-1"
        d="M64.59,32.07V41.6h12.2L61.14,56.68H126V32.07ZM84.32,48.51a2.66,2.66,0,0,1-5.31,0V40.24a2.66,2.66,0,0,1,5.31,0Zm15.23,0a2.66,2.66,0,0,1-5.31,0V40.24a2.66,2.66,0,0,1,5.31,0Zm15.23,0a2.66,2.66,0,0,1-5.32,0V40.24a2.66,2.66,0,0,1,5.32,0Z" />
      <path class="cls-1"
        d="M0,91.34H126V66.72H0ZM109.46,74.89a2.66,2.66,0,0,1,5.32,0v8.28a2.66,2.66,0,0,1-5.32,0Zm-15.22,0a2.66,2.66,0,0,1,5.31,0v8.28a2.66,2.66,0,0,1-5.31,0ZM79,74.89a2.66,2.66,0,0,1,5.31,0v8.28a2.66,2.66,0,0,1-5.31,0Z" />
      <path class="cls-1"
        d="M0,126H126V101.38H0Zm109.46-16.45a2.66,2.66,0,0,1,5.32,0v8.28a2.66,2.66,0,0,1-5.32,0Zm-15.22,0a2.66,2.66,0,0,1,5.31,0v8.28a2.66,2.66,0,0,1-5.31,0Zm-15.23,0a2.66,2.66,0,0,1,5.31,0v8.28a2.66,2.66,0,0,1-5.31,0Z" />
    </g>
  </g>
</svg>