<svg id="在线人数" xmlns="http://www.w3.org/2000/svg" width="15" height="14" viewBox="0 0 15 14">
  <path id="形状" d="M.181,13.833a.552.552,0,0,1-.161-.4h0C.008,13.3,0,13.155,0,13.013A6.055,6.055,0,0,1,3.781,7.387,4.022,4.022,0,1,1,10,4.035,4.035,4.035,0,0,1,8.228,7.387h0a6.054,6.054,0,0,1,3.78,5.625c0,.143-.006.284-.017.425h0a.556.556,0,0,1-1.111,0h0V13.4c.012-.129.021-.258.021-.391a4.894,4.894,0,1,0-9.788,0c0,.124.008.249.02.373a.5.5,0,0,1,.005.051A.56.56,0,0,1,.577,14,.567.567,0,0,1,.181,13.833Zm13.689-1.84A3.955,3.955,0,0,0,10.4,7.911s0,0-.007-.005a.647.647,0,0,1-.015-1.292l0,0a2.192,2.192,0,0,0,.306-4.224s-.066-.017-.115-.037a.578.578,0,0,1-.318-.974.579.579,0,0,1,.407-.171.432.432,0,0,1,.05.005.06.06,0,0,1,.04,0,3.38,3.38,0,0,1,1.091,6.086A5.056,5.056,0,0,1,15,11.993v.014l0,.008a.564.564,0,0,1-1.128-.023Z" fill="#fff"/>
</svg>
