<?xml version="1.0" standalone="no"?><!DOCTYPE svg PUBLIC "-//W3C//DTD SVG 1.1//EN" "http://www.w3.org/Graphics/SVG/1.1/DTD/svg11.dtd"><svg t="1723431862802" class="icon" viewBox="0 0 1024 1024" version="1.1" xmlns="http://www.w3.org/2000/svg" p-id="23292" xmlns:xlink="http://www.w3.org/1999/xlink" width="200" height="200"><path d="M837.632 229.888l-111.104-111.104c-15.530667-15.530667-40.106667-15.530667-54.272 0l-161.450667 161.450667c-15.530667 15.530667-15.530667 40.106667 0 54.272l43.861334 43.861333-22.016 22.016-14.165334-14.165333c-20.650667-20.650667-47.786667-29.696-73.557333-29.696-34.816-28.330667-80.042667-32.256-105.984-6.485334-25.770667 25.770667-22.016 70.997333 6.485333 105.984 0 27.136 9.045333 52.906667 29.696 73.557334l14.165334 14.165333-22.016 22.016-43.861334-43.861333c-15.530667-15.530667-40.106667-15.530667-54.272 0l-161.450666 161.450666c-15.530667 15.530667-15.530667 40.106667 0 54.272l111.104 111.104c15.530667 15.530667 40.106667 15.530667 54.272 0l161.450666-161.450666c15.530667-15.530667 15.530667-40.106667 0-54.272L397.141333 595.626667l22.016-22.016 49.152 49.152c12.970667-29.696 33.621333-59.392 59.392-85.162667 25.770667-25.770667 55.466667-46.421333 85.162667-59.392l-49.152-49.152 22.016-22.016 37.376 37.376c15.530667 15.530667 40.106667 15.530667 54.272 0l161.450667-161.450667c14.336-14.336 14.336-38.741333-1.194667-53.077333z m0 0" p-id="23293"></path><path d="M800.085333 508.928c-2.56-2.56-6.485333-5.12-9.045333-6.485333 0 0-1.365333 0-1.365333-1.365334-2.56-1.365333-3.925333-2.56-6.485334-3.925333h-1.365333c-63.317333-34.816-161.450667-10.410667-233.813333 61.952-73.557333 73.557333-96.938667 170.496-61.952 233.813333 1.365333 2.56 2.56 3.925333 3.925333 6.485334 0 0 0 1.365333 1.365333 1.365333 2.56 3.925333 5.12 6.485333 6.485334 9.045333 27.136 18.090667 87.893333-5.12 152.405333-56.832l-32.256-25.770666c-38.741333 31.061333-69.802667 47.786667-78.848 40.106666-11.605333-11.605333 27.136-69.802667 86.528-129.194666 59.392-59.392 117.589333-98.133333 129.194667-86.528 7.68 7.68-6.485333 34.816-33.621334 69.802666l25.770667 32.256c49.322667-62.122667 71.168-118.954667 53.077333-144.725333z m0 0" p-id="23294"></path><path d="M645.12 681.984c-10.410667-7.68-10.410667-22.016-1.365333-31.061333l3.925333-3.925334c9.045333-9.045333 23.210667-7.68 31.061333 1.365334l34.816 42.666666c7.68 10.410667 7.68 25.770667-1.365333 34.816l11.605333-11.605333c-9.045333 9.045333-24.576 10.410667-34.816 1.365333L645.12 681.984z m0 0" p-id="23295"></path><path d="M728.746667 699.392c-16.384 0-30.208 13.653333-31.061334 29.184 0 16.384 12.8 29.184 31.061334 29.184 16.384 0 31.061333-12.8 31.061333-29.184-0.853333-17.237333-14.677333-29.184-31.061333-29.184" p-id="23296"></path><path d="M805.546667 699.392c0 27.477333-10.922667 52.906667-31.914667 72.192-20.138667 20.138667-46.592 30.208-75.776 30.208v41.984c83.968 0 150.698667-64.853333 151.552-144.384H805.546667" p-id="23297"></path><path d="M883.029333 698.538667c0 96.768-83.114667 176.298667-185.344 176.298666v41.984c125.952 0 229.205333-97.792 229.205334-218.282666h-43.861334" p-id="23298"></path></svg>